<svg height="33" viewBox="0 0 243 33" width="243" xmlns="http://www.w3.org/2000/svg"><path d="m12.312 4h4.422l3.126 3.127-6.038 3.903zm-5.38 0h4.421l-1.51 7.03-6.038-3.903 3.126-3.127zm9.703 9.843 3.903-6.038 3.127 3.126v4.422zm-16.635-2.912 3.126-3.126 3.904 6.038-7.03 1.51v-4.423zm16.635 6.89 7.03-1.509v4.422l-3.127 3.126-3.903-6.038zm-16.635 2.914v-4.422l7.03 1.51-3.904 6.038-3.126-3.127zm12.312 6.93 1.51-7.03 6.038 3.905-3.126 3.126h-4.422zm-8.507-3.125 6.038-3.904 1.51 7.03h-4.422zm32.564-.673v-16.067h12.686v2.57h-9.862v4.385h8.83v2.57h-8.83v6.542zm24.962.276c-4.935 0-8.378-3.742-8.378-8.263v-.046c0-4.522 3.49-8.31 8.424-8.31 4.935 0 8.378 3.742 8.378 8.264v.046c0 4.521-3.489 8.309-8.424 8.309zm.046-2.617c3.19 0 5.417-2.525 5.417-5.646v-.046c0-3.122-2.272-5.693-5.463-5.693-3.19 0-5.417 2.525-5.417 5.647v.046c0 3.121 2.273 5.692 5.463 5.692zm13.323 2.34v-16.066h7.162c2.02 0 3.604.597 4.637 1.607.849.872 1.33 2.065 1.33 3.465v.046c0 2.64-1.583 4.224-3.81 4.867l4.339 6.082h-3.352l-3.948-5.6h-3.535v5.6h-2.823zm2.823-8.102h4.132c2.02 0 3.305-1.056 3.305-2.686v-.046c0-1.721-1.239-2.662-3.328-2.662h-4.109zm22.451 8.332c-2.455 0-4.774-.85-6.702-2.57l1.699-2.02c1.537 1.33 3.098 2.088 5.072 2.088 1.745 0 2.847-.826 2.847-2.02v-.046c0-1.148-.643-1.767-3.627-2.456-3.42-.826-5.348-1.836-5.348-4.797v-.046c0-2.755 2.295-4.66 5.486-4.66 2.341 0 4.2.712 5.83 2.02l-1.515 2.135c-1.446-1.079-2.892-1.653-4.361-1.653-1.653 0-2.617.85-2.617 1.905v.046c0 1.24.735 1.79 3.833 2.525 3.398.827 5.142 2.043 5.142 4.706v.046c0 3.006-2.364 4.797-5.739 4.797zm15.402-.23v-6.335l-6.38-9.732h3.35l4.476 7.093 4.545-7.093h3.237l-6.381 9.663v6.404zm17.563 0v-13.45h-5.118v-2.618h13.06v2.616h-5.118v13.451h-2.824zm12.945 0v-16.066h2.823v6.68h7.667v-6.68h2.823v16.067h-2.823v-6.771h-7.667v6.771h-2.823zm25.998 0v-16.066h7.207c1.836 0 3.283.505 4.2 1.423.712.711 1.08 1.607 1.08 2.663v.045c0 1.929-1.102 2.962-2.296 3.581 1.882.643 3.19 1.722 3.19 3.902v.046c0 2.87-2.364 4.407-5.944 4.407h-7.437zm9.663-11.476v-.046c0-1.263-1.01-2.043-2.823-2.043h-4.063v4.269h3.856c1.814 0 3.03-.711 3.03-2.18zm.895 6.725c0-1.354-1.079-2.158-3.305-2.158h-4.476v4.407h4.683c1.905 0 3.098-.757 3.098-2.203zm6.522 4.751 7.07-16.182h2.616l7.07 16.182h-2.984l-1.63-3.879h-7.597l-1.653 3.88h-2.892zm5.577-6.38h5.532l-2.777-6.428-2.755 6.427zm15.817 6.38v-16.066h7.162c2.02 0 3.604.597 4.637 1.607.849.872 1.33 2.065 1.33 3.465v.046c0 2.64-1.583 4.224-3.81 4.867l4.339 6.082h-3.351l-3.948-5.6h-3.535v5.6h-2.824zm2.824-8.102h4.131c2.02 0 3.306-1.056 3.306-2.686v-.046c0-1.721-1.24-2.662-3.328-2.662h-4.11v5.394zm16.163 8.102v-16.066h7.161c2.02 0 3.604.597 4.637 1.607.85.872 1.331 2.065 1.331 3.465v.046c0 2.64-1.584 4.224-3.81 4.867l4.338 6.081h-3.351l-3.948-5.6h-3.535v5.6zm2.823-8.102h4.132c2.02 0 3.305-1.056 3.305-2.686v-.046c0-1.721-1.24-2.662-3.328-2.662h-4.11v5.394z" fill="#fff" fill-rule="evenodd"/></svg>